<svg width="28" height="28" fill="none" xmlns="http://www.w3.org/2000/svg"><path d="M28 13.986C28 6.265 21.728 0 14 0S0 6.265 0 13.986c0 4.252 1.932 8.085 4.956 10.657.028.029.056.029.056.056.252.196.504.392.784.588.14.085.252.195.392.307A13.965 13.965 0 0 0 14.028 28c2.795 0 5.526-.838 7.84-2.406.14-.084.252-.195.392-.28.252-.195.532-.39.784-.587.028-.027.056-.027.056-.055 2.968-2.603 4.9-6.434 4.9-10.686ZM14 26.238c-2.632 0-5.04-.84-7.028-2.238a5.66 5.66 0 0 1 .14-.67c.167-.608.412-1.19.728-1.735a6.157 6.157 0 0 1 1.12-1.428c.42-.42.924-.81 1.428-1.118a7.075 7.075 0 0 1 1.708-.7 7.265 7.265 0 0 1 1.904-.25 7.324 7.324 0 0 1 5.124 2.04 7.01 7.01 0 0 1 1.512 2.266 7.44 7.44 0 0 1 .42 1.595A12.303 12.303 0 0 1 14 26.238Zm-4.284-12.95a4.358 4.358 0 0 1-.364-1.792c0-.614.112-1.23.364-1.79a4.961 4.961 0 0 1 1.008-1.483c.42-.42.924-.754 1.484-1.006A4.367 4.367 0 0 1 14 6.853c.644 0 1.232.112 1.792.364s1.064.588 1.484 1.006c.42.42.756.924 1.008 1.482.252.56.364 1.177.364 1.79 0 .645-.112 1.233-.364 1.791a4.97 4.97 0 0 1-1.008 1.484 4.97 4.97 0 0 1-1.484 1.006 4.752 4.752 0 0 1-3.612 0 4.97 4.97 0 0 1-1.484-1.006 4.422 4.422 0 0 1-.98-1.484v.002Zm12.992 9.285c0-.056-.028-.084-.028-.14a9.136 9.136 0 0 0-1.204-2.46 8.546 8.546 0 0 0-1.904-1.986 9.115 9.115 0 0 0-1.82-1.064c.294-.194.566-.419.812-.67a7.351 7.351 0 0 0 1.092-1.373c.62-1.019.94-2.192.924-3.384a6.491 6.491 0 0 0-.504-2.573 6.648 6.648 0 0 0-1.428-2.098 6.729 6.729 0 0 0-2.1-1.4 6.51 6.51 0 0 0-2.576-.502 6.51 6.51 0 0 0-2.576.504 6.354 6.354 0 0 0-2.1 1.426 6.72 6.72 0 0 0-1.4 2.098 6.493 6.493 0 0 0-.504 2.573c0 .616.084 1.204.252 1.762.168.588.392 1.12.7 1.622.28.504.672.952 1.092 1.372.252.252.532.474.84.67a8.96 8.96 0 0 0-1.82 1.093A9.7 9.7 0 0 0 6.552 20a8.748 8.748 0 0 0-1.204 2.46c-.028.056-.028.112-.028.14-2.212-2.238-3.584-5.258-3.584-8.615C1.736 7.245 7.252 1.734 14 1.734c6.748 0 12.264 5.511 12.264 12.252a12.18 12.18 0 0 1-3.556 8.587Z" fill="#fff"/></svg>