<svg width="74" height="46" fill="none" xmlns="http://www.w3.org/2000/svg"><path d="M20.375 44c4.004 0 7.25-2.686 7.25-6s-3.246-6-7.25-6-7.25 2.686-7.25 6 3.246 6 7.25 6Zm36.25 0c4.004 0 7.25-2.686 7.25-6s-3.246-6-7.25-6-7.25 2.686-7.25 6 3.246 6 7.25 6Z" stroke="#252525" stroke-width="4" stroke-linecap="round" stroke-linejoin="round"/><path d="M13.125 38h-7.25V26M2.25 2h39.875v36m-14.5 0h21.75m14.5 0h7.25V20h-29m0-15H60.25l10.875 15m-65.25-6h14.5" stroke="#252525" stroke-width="4" stroke-linecap="round" stroke-linejoin="round"/></svg>