<svg width="71" height="48" fill="none" xmlns="http://www.w3.org/2000/svg"><path d="M.7 11.325c0-2.844 1.26-5.572 3.504-7.584C6.447 1.73 9.49.601 12.663.601h45.675c3.172 0 6.215 1.13 8.458 3.14 2.244 2.012 3.504 4.74 3.504 7.584v25.35c0 2.845-1.26 5.573-3.504 7.584-2.243 2.011-5.286 3.141-8.458 3.141H12.663c-3.173 0-6.216-1.13-8.46-3.141C1.962 42.248.7 39.519.7 36.675v-25.35ZM5.05 24v12.675c0 3.768 3.41 6.825 7.613 6.825h9.787V26.757l-7.16 6.424a2.311 2.311 0 0 1-1.54.572 2.311 2.311 0 0 1-1.54-.572 1.856 1.856 0 0 1-.638-1.38c0-.519.23-1.015.638-1.381L19.375 24H5.05Zm5.516-3.9c-.957-1.487-1.34-3.216-1.09-4.918s1.119-3.283 2.473-4.497c1.354-1.214 3.117-1.994 5.016-2.218a9.548 9.548 0 0 1 5.485.978V4.5h-9.787c-2.02 0-3.956.72-5.383 2-1.428 1.279-2.23 3.015-2.23 4.825V20.1h5.516Zm7.534 0h4.35v-3.9a3.62 3.62 0 0 0-.733-2.167 4.282 4.282 0 0 0-1.952-1.436 4.819 4.819 0 0 0-2.513-.222 4.526 4.526 0 0 0-2.228 1.067 3.793 3.793 0 0 0-1.19 1.997 3.527 3.527 0 0 0 .247 2.254c.33.712.887 1.321 1.603 1.75a4.714 4.714 0 0 0 2.416.657Zm8.7-3.9v3.9h4.35a4.72 4.72 0 0 0 2.417-.657 4.026 4.026 0 0 0 1.602-1.75c.33-.713.416-1.497.248-2.254a3.793 3.793 0 0 0-1.19-1.997 4.526 4.526 0 0 0-2.228-1.067 4.819 4.819 0 0 0-2.514.222 4.282 4.282 0 0 0-1.952 1.436A3.62 3.62 0 0 0 26.8 16.2Zm11.884 3.9H65.95v-8.775c0-1.81-.802-3.546-2.23-4.826C62.294 5.22 60.358 4.5 58.339 4.5H26.8v4.945a9.548 9.548 0 0 1 5.485-.978c1.9.224 3.662 1.004 5.017 2.218 1.354 1.214 2.223 2.795 2.473 4.497s-.133 3.431-1.09 4.918ZM29.876 24l7.164 6.42c.409.366.638.862.638 1.38 0 .518-.23 1.015-.638 1.38a2.311 2.311 0 0 1-1.54.573 2.311 2.311 0 0 1-1.54-.572l-7.16-6.424V43.5h31.538c2.019 0 3.955-.719 5.383-1.999 1.427-1.28 2.23-3.016 2.23-4.826V24H29.875Z" fill="#252525"/></svg>