<svg width="67" height="61" fill="none" xmlns="http://www.w3.org/2000/svg"><path d="M62.031 17.125H49.16l.389-.344a9.389 9.389 0 0 0 2.254-3.043 9.077 9.077 0 0 0 .134-7.327 9.356 9.356 0 0 0-2.141-3.118A9.763 9.763 0 0 0 46.56 1.23a10.049 10.049 0 0 0-7.602.129 9.727 9.727 0 0 0-3.157 2.172A10.53 10.53 0 0 0 33.5 7.187a10.53 10.53 0 0 0-2.302-3.656c-1.844-1.656-4.282-2.557-6.802-2.514-2.52.042-4.924 1.026-6.707 2.744-1.782 1.718-2.802 4.035-2.847 6.464-.044 2.428.891 4.779 2.61 6.556l.388.344H4.97c-1.204 0-2.359.46-3.21 1.281A4.296 4.296 0 0 0 .43 21.5v10a4.3 4.3 0 0 0 1.33 3.094 4.627 4.627 0 0 0 3.21 1.281h.648V56.5c0 1.16.478 2.273 1.33 3.094a4.627 4.627 0 0 0 3.21 1.281h46.687a4.627 4.627 0 0 0 3.21-1.281 4.296 4.296 0 0 0 1.329-3.094V35.875h.648a4.627 4.627 0 0 0 3.21-1.281 4.297 4.297 0 0 0 1.33-3.094v-10a4.3 4.3 0 0 0-1.33-3.094 4.627 4.627 0 0 0-3.21-1.281ZM38.558 6.187A5.82 5.82 0 0 1 40.45 4.81a6.032 6.032 0 0 1 4.642-.148 5.86 5.86 0 0 1 1.983 1.254 5.61 5.61 0 0 1 1.301 1.912 5.443 5.443 0 0 1-.153 4.474 5.65 5.65 0 0 1-1.43 1.824c-1.913 1.844-7.295 2.719-11.283 2.938.227-3.844 1.135-9.032 3.048-10.876Zm-18.351 0a5.95 5.95 0 0 1 4.118-1.638 5.95 5.95 0 0 1 4.117 1.638c1.913 1.844 2.82 7.032 3.048 10.875-3.988-.218-9.37-1.093-11.283-2.937a5.523 5.523 0 0 1-1.7-3.969c0-1.487.611-2.914 1.7-3.969ZM4.32 31.5v-10c0-.166.069-.325.19-.442a.661.661 0 0 1 .459-.183h26.586v11.25H4.969a.661.661 0 0 1-.459-.183.614.614 0 0 1-.19-.442Zm5.188 25V35.875h22.047v21.25H10.156a.661.661 0 0 1-.458-.183.614.614 0 0 1-.19-.442Zm47.984 0a.614.614 0 0 1-.19.442.661.661 0 0 1-.458.183H35.445v-21.25h22.047V56.5Zm5.188-25a.614.614 0 0 1-.19.442.661.661 0 0 1-.459.183H35.445v-11.25h26.586c.172 0 .337.066.459.183.121.117.19.276.19.442v10Z" fill="#252525"/></svg>