<svg width="55" height="59" fill="none" xmlns="http://www.w3.org/2000/svg"><path d="M54.833 41.707c0-.85-.199-1.69-.585-2.475a6.517 6.517 0 0 0-1.667-2.098 7.914 7.914 0 0 0-2.494-1.401 8.958 8.958 0 0 0-2.941-.492H7.854c-1.01 0-2.01.167-2.942.492a7.913 7.913 0 0 0-2.495 1.402 6.518 6.518 0 0 0-1.666 2.1 5.589 5.589 0 0 0-.584 2.475v1.659c0 2.567 1.09 5.048 3.068 7 5.354 5.273 13.506 7.878 24.251 7.878 10.749 0 18.905-2.602 24.265-7.874 1.989-1.954 3.082-4.44 3.082-7.013v-1.653ZM7.851 39.554h39.295c1.41 0 2.555.963 2.555 2.156v1.653c0 1.543-.653 3.034-1.845 4.206-4.294 4.22-11.015 6.363-20.373 6.363-9.355 0-16.072-2.142-20.353-6.363-1.189-1.17-1.842-2.66-1.842-4.2v-1.662c.001-.57.27-1.118.75-1.522.48-.403 1.13-.63 1.81-.631h.003ZM44.573 15.13c0-3.028-1.135-5.978-3.245-8.43-2.11-2.453-5.085-4.283-8.503-5.228a20.158 20.158 0 0 0-10.531-.038c-3.428.92-6.422 2.728-8.556 5.166a3.008 3.008 0 0 0-.766-.101H4.437c-.68 0-1.331.227-1.812.632-.48.404-.75.952-.75 1.524v15.807a6.826 6.826 0 0 0 .713 3.027 7.966 7.966 0 0 0 2.036 2.567 9.674 9.674 0 0 0 3.05 1.716 10.95 10.95 0 0 0 3.597.602h.854v-.011h.034c.579 0 1.148-.123 1.655-.359a3.24 3.24 0 0 0 1.24-.989c.308-.412.485-.884.515-1.37a2.487 2.487 0 0 0-.34-1.41 3.071 3.071 0 0 0-1.11-1.093 3.823 3.823 0 0 0-1.602-.503 3.995 3.995 0 0 0-1.69.215 3.404 3.404 0 0 0-1.353.877c-.74-.289-1.367-.75-1.805-1.329A3.191 3.191 0 0 1 7 24.466v-.716h2.557c1.298 0 2.504-.35 3.485-.943 1.976 2.636 4.917 4.66 8.38 5.768a20.135 20.135 0 0 0 10.816.372c3.558-.867 6.686-2.682 8.91-5.174 2.226-2.492 3.428-5.525 3.426-8.642Zm-34.167-.305c-.005.203-.005.406 0 .61v3.28c0 .19-.09.373-.25.508a.942.942 0 0 1-.604.21H7v-8.619h3.41v4.011h-.004Zm5.125.56v-.511c.08-2.646 1.396-5.159 3.662-6.994s5.3-2.846 8.445-2.812c3.145.034 6.147 1.109 8.357 2.992 2.21 1.883 3.45 4.423 3.45 7.07 0 2.646-1.24 5.186-3.45 7.07-2.21 1.883-5.212 2.958-8.357 2.991-3.145.034-6.18-.976-8.445-2.812-2.266-1.835-3.582-4.348-3.662-6.993Z" fill="#252525"/></svg>