<svg width="39" height="18" fill="none" xmlns="http://www.w3.org/2000/svg"><path d="m37.9 16.211-4.356-7.355L37.856 1.8A1.111 1.111 0 0 0 36.91.111H2.222A2.222 2.222 0 0 0 0 2.333v13.334a2.222 2.222 0 0 0 2.222 2.222h34.722a1.111 1.111 0 0 0 .956-1.678Zm-26.222-3.678h-1.245L6.811 7.711v4.833H5.556V5.667H6.81l3.633 4.833V5.667h1.245l-.011 6.866Zm7.033-5.755H14.79v1.655h3.555v1.111H14.79v1.79h3.922v1.11h-5.178V5.667H18.7l.011 1.11Zm9.211 5.733h-1.255l-1.723-5.1-1.722 5.122h-1.244l-2.222-6.866h1.355l1.467 4.922 1.689-4.922h1.355l1.622 4.922 1.478-4.922h1.367l-2.167 6.844Z" fill="#D4B073"/></svg>