<svg width="67" height="61" viewBox="0 0 67 61" fill="none" xmlns="http://www.w3.org/2000/svg">
<path d="M62.0312 17.125H49.1598L49.5488 16.7812C50.5045 15.9229 51.2709 14.8879 51.8025 13.7379C52.3342 12.588 52.62 11.3465 52.6431 10.0877C52.6661 8.82896 52.4259 7.5786 51.9367 6.41125C51.4475 5.24389 50.7193 4.18347 49.7957 3.29324C48.8721 2.403 47.7719 1.7012 46.5608 1.22968C45.3497 0.758171 44.0524 0.526612 42.7464 0.548822C41.4404 0.571032 40.1525 0.846555 38.9593 1.35895C37.7662 1.87135 36.6924 2.61013 35.802 3.53122C34.7847 4.58645 34.0014 5.83055 33.5 7.18747C32.9986 5.83055 32.2153 4.58645 31.198 3.53122C29.3542 1.87522 26.9155 0.973677 24.3956 1.01653C21.8758 1.05938 19.4716 2.04328 17.6895 3.76094C15.9074 5.47861 14.8866 7.79592 14.8422 10.2247C14.7977 12.6534 15.7331 15.004 17.4512 16.7812L17.8402 17.125H4.96875C3.76492 17.125 2.61039 17.5859 1.75915 18.4064C0.907909 19.2268 0.429688 20.3396 0.429688 21.5V31.5C0.429688 32.6603 0.907909 33.7731 1.75915 34.5936C2.61039 35.414 3.76492 35.875 4.96875 35.875H5.61719V56.5C5.61719 57.6603 6.09541 58.7731 6.94665 59.5936C7.79789 60.414 8.95242 60.875 10.1562 60.875H56.8438C58.0476 60.875 59.2021 60.414 60.0533 59.5936C60.9046 58.7731 61.3828 57.6603 61.3828 56.5V35.875H62.0312C63.2351 35.875 64.3896 35.414 65.2409 34.5936C66.0921 33.7731 66.5703 32.6603 66.5703 31.5V21.5C66.5703 20.3396 66.0921 19.2268 65.2409 18.4064C64.3896 17.5859 63.2351 17.125 62.0312 17.125ZM38.5578 6.18747C39.0841 5.6081 39.7282 5.13906 40.4502 4.80941C41.1723 4.47975 41.9568 4.29649 42.7553 4.27099C43.5538 4.24548 44.3492 4.37827 45.0923 4.66114C45.8354 4.944 46.5103 5.37091 47.0752 5.91542C47.6401 6.45994 48.0831 7.11045 48.3765 7.82667C48.67 8.54289 48.8078 9.30956 48.7813 10.0792C48.7549 10.8488 48.5647 11.605 48.2227 12.301C47.8807 12.9969 47.3941 13.6177 46.793 14.125C44.8801 15.9687 39.498 16.8437 35.5102 17.0625C35.7371 13.2187 36.6449 8.03122 38.5578 6.18747ZM20.207 6.18747C21.3007 5.1379 22.7813 4.54865 24.3246 4.54865C25.868 4.54865 27.3485 5.1379 28.4422 6.18747C30.3551 8.03122 31.2629 13.2187 31.4898 17.0625C27.502 16.8437 22.1199 15.9687 20.207 14.125C19.1181 13.0708 18.5068 11.6438 18.5068 10.1562C18.5068 8.66865 19.1181 7.24164 20.207 6.18747ZM4.32031 31.5V21.5C4.32031 21.3342 4.38863 21.1752 4.51023 21.058C4.63184 20.9408 4.79677 20.875 4.96875 20.875H31.5547V32.125H4.96875C4.79677 32.125 4.63184 32.0591 4.51023 31.9419C4.38863 31.8247 4.32031 31.6657 4.32031 31.5ZM9.50781 56.5V35.875H31.5547V57.125H10.1562C9.98427 57.125 9.81934 57.0591 9.69773 56.9419C9.57613 56.8247 9.50781 56.6657 9.50781 56.5ZM57.4922 56.5C57.4922 56.6657 57.4239 56.8247 57.3023 56.9419C57.1807 57.0591 57.0157 57.125 56.8438 57.125H35.4453V35.875H57.4922V56.5ZM62.6797 31.5C62.6797 31.6657 62.6114 31.8247 62.4898 31.9419C62.3682 32.0591 62.2032 32.125 62.0312 32.125H35.4453V20.875H62.0312C62.2032 20.875 62.3682 20.9408 62.4898 21.058C62.6114 21.1752 62.6797 21.3342 62.6797 21.5V31.5Z" fill="#252525"/>
</svg>
