<svg width="55" height="59" viewBox="0 0 55 59" fill="none" xmlns="http://www.w3.org/2000/svg">
<path d="M54.8332 41.7072C54.8332 40.8579 54.6343 40.0168 54.2479 39.2322C53.8616 38.4475 53.2952 37.7346 52.5813 37.1341C51.8675 36.5337 51.02 36.0575 50.0873 35.7327C49.1546 35.4079 48.155 35.241 47.1457 35.2413H7.854C6.84434 35.241 5.84449 35.408 4.91159 35.733C3.9787 36.0579 3.13106 36.5344 2.41712 37.1351C1.70318 37.7359 1.13694 38.4492 0.750766 39.2341C0.364592 40.0191 0.166056 40.8605 0.166505 41.7101V43.369C0.166505 45.9363 1.25642 48.4175 3.23467 50.3696C8.58859 55.6423 16.7408 58.2471 27.4862 58.2471C38.235 58.2471 46.3906 55.6452 51.7513 50.3725C53.7397 48.4192 54.8327 45.9322 54.8332 43.3603V41.7072ZM7.85059 39.5538H47.1457C48.5568 39.5538 49.7013 40.517 49.7013 41.7101V43.3632C49.7019 44.9055 49.0476 46.3972 47.8563 47.5693C43.5616 51.7898 36.841 53.9317 27.4828 53.9317C18.1279 53.9317 11.4108 51.7898 7.12967 47.5693C5.94121 46.3983 5.28822 44.9089 5.28809 43.369V41.7072C5.28899 41.1363 5.5589 40.5891 6.03863 40.1854C6.51835 39.7817 7.16874 39.5546 7.84717 39.5538H7.85059ZM44.5729 15.1307C44.5734 12.1032 43.4379 9.15287 41.3283 6.70038C39.2187 4.24788 36.2428 2.41845 32.8249 1.47294C29.4069 0.52742 25.7215 0.514089 22.294 1.43485C18.8665 2.35561 15.8721 4.16344 13.7375 6.60058C13.4899 6.5346 13.2319 6.50067 12.9722 6.49996H4.43734C3.75772 6.49996 3.10594 6.72713 2.62538 7.13151C2.14481 7.53588 1.87484 8.08433 1.87484 8.65621V24.463C1.87394 25.5017 2.11631 26.5304 2.58809 27.4903C3.05987 28.4502 3.75182 29.3225 4.6244 30.0572C5.49697 30.792 6.53306 31.3749 7.67346 31.7726C8.81386 32.1703 10.0362 32.375 11.2707 32.375H12.1248V32.3635H12.159C12.7379 32.3642 13.3074 32.2409 13.814 32.0053C14.3206 31.7696 14.7476 31.4293 15.0547 31.0164C15.3618 30.6035 15.5389 30.1316 15.5694 29.6452C15.5999 29.1588 15.4827 28.6738 15.2288 28.2361C14.975 27.7983 14.5929 27.4221 14.1186 27.1429C13.6442 26.8638 13.0932 26.6908 12.5174 26.6404C11.9417 26.5899 11.3601 26.6637 10.8276 26.8546C10.2951 27.0456 9.82906 27.3475 9.47351 27.7318C8.7336 27.443 8.10746 26.982 7.6691 26.4032C7.23074 25.8244 6.9985 25.1521 6.99984 24.4658V23.75H9.55551C10.8538 23.75 12.0599 23.3992 13.0405 22.807C15.0167 25.4432 17.9576 27.4676 21.4201 28.575C24.8825 29.6824 28.679 29.8128 32.2372 28.9466C35.7954 28.0804 38.9227 26.2645 41.1477 23.7725C43.3726 21.2806 44.5748 18.2476 44.5729 15.1307ZM10.4063 14.826C10.4013 15.0291 10.4013 15.2323 10.4063 15.4355V18.7158C10.4063 18.9065 10.3163 19.0893 10.1561 19.2241C9.99589 19.3589 9.77863 19.4346 9.55209 19.4346H6.99984V10.8153H10.4097V14.826H10.4063ZM15.5313 15.3866V14.8748C15.6112 12.2291 16.9267 9.71642 19.1927 7.88103C21.4587 6.04565 24.4928 5.03537 27.6378 5.06902C30.7827 5.10267 33.7853 6.17755 35.9951 8.06083C38.2049 9.9441 39.4441 12.4841 39.4441 15.1307C39.4441 17.7773 38.2049 20.3173 35.9951 22.2006C33.7853 24.0839 30.7827 25.1587 27.6378 25.1924C24.4928 25.226 21.4587 24.2158 19.1927 22.3804C16.9267 20.545 15.6112 18.0323 15.5313 15.3866Z" fill="#252525"/>
</svg>
