<svg width="71" height="48" viewBox="0 0 71 48" fill="none" xmlns="http://www.w3.org/2000/svg">
<path d="M0.700195 11.3251C0.700195 8.48065 1.96053 5.7527 4.20393 3.74138C6.44733 1.73005 9.49004 0.600098 12.6627 0.600098H58.3377C61.5103 0.600098 64.5531 1.73005 66.7965 3.74138C69.0399 5.7527 70.3002 8.48065 70.3002 11.3251V36.6751C70.3002 39.5195 69.0399 42.2475 66.7965 44.2588C64.5531 46.2701 61.5103 47.4001 58.3377 47.4001H12.6627C9.49004 47.4001 6.44733 46.2701 4.20393 44.2588C1.96053 42.2475 0.700195 39.5195 0.700195 36.6751V11.3251ZM5.0502 24.0001V36.6751C5.0502 40.4425 8.4606 43.5001 12.6627 43.5001H22.4502V26.7574L15.2901 33.1807C14.8817 33.5469 14.3278 33.7526 13.7502 33.7526C13.1726 33.7526 12.6187 33.5469 12.2103 33.1807C11.8019 32.8145 11.5724 32.3179 11.5724 31.8001C11.5724 31.2823 11.8019 30.7857 12.2103 30.4195L19.3747 24.0001H5.0502ZM10.566 20.1001C9.60858 18.6131 9.22515 16.8845 9.47519 15.1822C9.72522 13.4799 10.5947 11.8992 11.9489 10.6851C13.303 9.47106 15.0662 8.6915 16.9648 8.46733C18.8635 8.24317 20.7916 8.58692 22.4502 9.4453V4.5001H12.6627C10.6437 4.5001 8.70747 5.21916 7.27985 6.49909C5.85222 7.77903 5.0502 9.51499 5.0502 11.3251V20.1001H10.566ZM18.1002 20.1001H22.4502V16.2001C22.4502 15.4288 22.1951 14.6747 21.7171 14.0334C21.2391 13.392 20.5597 12.8921 19.7649 12.597C18.97 12.3018 18.0954 12.2246 17.2516 12.375C16.4077 12.5255 15.6326 12.897 15.0243 13.4424C14.4159 13.9878 14.0016 14.6827 13.8338 15.4392C13.6659 16.1958 13.7521 16.9799 14.0813 17.6926C14.4106 18.4052 14.9681 19.0143 15.6835 19.4428C16.3988 19.8714 17.2398 20.1001 18.1002 20.1001ZM26.8002 16.2001V20.1001H31.1502C32.0105 20.1001 32.8516 19.8714 33.5669 19.4428C34.2823 19.0143 34.8398 18.4052 35.1691 17.6926C35.4983 16.9799 35.5845 16.1958 35.4166 15.4392C35.2488 14.6827 34.8345 13.9878 34.2261 13.4424C33.6178 12.897 32.8427 12.5255 31.9988 12.375C31.155 12.2246 30.2804 12.3018 29.4855 12.597C28.6907 12.8921 28.0113 13.392 27.5333 14.0334C27.0553 14.6747 26.8002 15.4288 26.8002 16.2001ZM38.6844 20.1001H65.9502V11.3251C65.9502 9.51499 65.1482 7.77903 63.7205 6.49909C62.2929 5.21916 60.3567 4.5001 58.3377 4.5001H26.8002V9.4453C28.4588 8.58692 30.3869 8.24317 32.2855 8.46733C34.1842 8.6915 35.9473 9.47106 37.3015 10.6851C38.6557 11.8992 39.5252 13.4799 39.7752 15.1822C40.0252 16.8845 39.6418 18.6131 38.6844 20.1001ZM29.8756 24.0001L37.0401 30.4195C37.4485 30.7857 37.6779 31.2823 37.6779 31.8001C37.6779 32.3179 37.4485 32.8145 37.0401 33.1807C36.6317 33.5469 36.0778 33.7526 35.5002 33.7526C34.9226 33.7526 34.3687 33.5469 33.9603 33.1807L26.8002 26.7574V43.5001H58.3377C60.3567 43.5001 62.2929 42.781 63.7205 41.5011C65.1482 40.2212 65.9502 38.4852 65.9502 36.6751V24.0001H29.8756Z" fill="#252525"/>
</svg>
