<svg width="74" height="46" viewBox="0 0 74 46" fill="none" xmlns="http://www.w3.org/2000/svg">
<path d="M20.375 44C24.3791 44 27.625 41.3137 27.625 38C27.625 34.6863 24.3791 32 20.375 32C16.3709 32 13.125 34.6863 13.125 38C13.125 41.3137 16.3709 44 20.375 44Z" stroke="#252525" stroke-width="4" stroke-linecap="round" stroke-linejoin="round"/>
<path d="M56.625 44C60.6291 44 63.875 41.3137 63.875 38C63.875 34.6863 60.6291 32 56.625 32C52.6209 32 49.375 34.6863 49.375 38C49.375 41.3137 52.6209 44 56.625 44Z" stroke="#252525" stroke-width="4" stroke-linecap="round" stroke-linejoin="round"/>
<path d="M13.125 38H5.875V26M2.25 2H42.125V38M27.625 38H49.375M63.875 38H71.125V20H42.125M42.125 5H60.25L71.125 20M5.875 14H20.375" stroke="#252525" stroke-width="4" stroke-linecap="round" stroke-linejoin="round"/>
</svg>
