<svg width="39" height="18" viewBox="0 0 39 18" fill="none" xmlns="http://www.w3.org/2000/svg">
<path d="M37.9 16.2111L33.5444 8.85553L37.8556 1.79997C37.9579 1.63184 38.0138 1.43953 38.0174 1.24273C38.021 1.04592 37.9723 0.851678 37.8763 0.679875C37.7802 0.508073 37.6402 0.364878 37.4706 0.264938C37.301 0.164999 37.1079 0.111903 36.9111 0.111084H2.22222C1.63285 0.111084 1.06762 0.345211 0.650874 0.761958C0.234126 1.17871 0 1.74394 0 2.33331L0 15.6666C0 16.256 0.234126 16.8212 0.650874 17.238C1.06762 17.6547 1.63285 17.8889 2.22222 17.8889H36.9444C37.1406 17.8888 37.3332 17.8369 37.5027 17.7383C37.6723 17.6397 37.8127 17.4981 37.9097 17.3276C38.0068 17.1572 38.057 16.9642 38.0553 16.768C38.0536 16.5719 38 16.3798 37.9 16.2111ZM11.6778 12.5333H10.4333L6.81111 7.71108V12.5444H5.55556V5.66664H6.81111L10.4444 10.5V5.66664H11.6889L11.6778 12.5333ZM18.7111 6.77775H14.7889V8.43331H18.3444V9.54442H14.7889V11.3333H18.7111V12.4444H13.5333V5.66664H18.7L18.7111 6.77775ZM27.9222 12.5111H26.6667L24.9444 7.41108L23.2222 12.5333H21.9778L19.7556 5.66664H21.1111L22.5778 10.5889L24.2667 5.66664H25.6222L27.2444 10.5889L28.7222 5.66664H30.0889L27.9222 12.5111Z" fill="#D4B073"/>
</svg>
