<svg width="28" height="24" viewBox="0 0 28 24" fill="none" xmlns="http://www.w3.org/2000/svg">
<path d="M24.78 2.321C24.1297 1.67068 23.3576 1.15488 22.5079 0.80309C21.6581 0.451299 20.7474 0.270407 19.8277 0.270752C18.908 0.271098 17.9974 0.452674 17.1479 0.805103C16.2984 1.15753 15.5267 1.67391 14.8768 2.32472L14.0286 3.18331L13.1874 2.32657L13.1819 2.32111C12.5319 1.67109 11.7602 1.15547 10.9109 0.803684C10.0617 0.451897 9.1514 0.270835 8.23215 0.270835C7.31289 0.270835 6.40263 0.451897 5.55335 0.803684C4.70407 1.15547 3.93239 1.67109 3.28238 2.32111L2.90449 2.699C1.59174 4.01175 0.854248 5.79222 0.854248 7.64874C0.854248 9.50525 1.59174 11.2857 2.90449 12.5985L12.878 22.5719L14.0043 23.7519L14.0312 23.725L14.0603 23.7542L15.1156 22.6408L25.1579 12.5983C26.4687 11.2845 27.2048 9.50443 27.2048 7.64857C27.2048 5.79271 26.4687 4.01263 25.1579 2.69883L24.78 2.321ZM23.9202 11.3609L14.0312 21.2502L4.14185 11.3609C3.15729 10.3763 2.60418 9.04098 2.60418 7.6486C2.60418 6.25622 3.15729 4.92087 4.14185 3.9363L4.5198 3.55841C5.50388 2.57434 6.83842 2.02126 8.23012 2.02073C9.62182 2.02021 10.9568 2.57229 11.9416 3.55562L14.0248 5.67679L16.1179 3.55841C16.6054 3.0709 17.1842 2.68418 17.8211 2.42034C18.4581 2.1565 19.1408 2.02071 19.8302 2.02071C20.5197 2.02071 21.2024 2.1565 21.8393 2.42034C22.4763 2.68418 23.0551 3.0709 23.5426 3.55841L23.9205 3.93625C24.9035 4.92162 25.4556 6.25671 25.4556 7.64862C25.4555 9.04052 24.9034 10.3756 23.9202 11.3609Z" fill="white"/>
</svg>
