<svg width="28" height="28" viewBox="0 0 28 28" fill="none" xmlns="http://www.w3.org/2000/svg">
<path d="M4.63987 11.48C4.6868 10.8953 4.95225 10.3497 5.38336 9.9519C5.81446 9.55409 6.37959 9.33325 6.9662 9.33337H21.0339C21.6205 9.33325 22.1856 9.55409 22.6167 9.9519C23.0478 10.3497 23.3133 10.8953 23.3602 11.48L24.297 23.1467C24.3228 23.4678 24.2818 23.7907 24.1767 24.0951C24.0715 24.3996 23.9045 24.6789 23.6861 24.9157C23.4676 25.1524 23.2026 25.3413 22.9076 25.4706C22.6125 25.5998 22.294 25.6666 21.9719 25.6667H6.0282C5.70611 25.6666 5.38753 25.5998 5.09251 25.4706C4.79749 25.3413 4.53243 25.1524 4.31401 24.9157C4.0956 24.6789 3.92855 24.3996 3.8234 24.0951C3.71825 23.7907 3.67727 23.4678 3.70304 23.1467L4.63987 11.48V11.48Z" stroke="white" stroke-width="2" stroke-linecap="round" stroke-linejoin="round"/>
<path d="M18.6666 12.8334V7.00004C18.6666 5.76236 18.1749 4.57538 17.2998 3.70021C16.4246 2.82504 15.2376 2.33337 13.9999 2.33337C12.7622 2.33337 11.5753 2.82504 10.7001 3.70021C9.82492 4.57538 9.33325 5.76236 9.33325 7.00004V12.8334" stroke="white" stroke-width="2" stroke-linecap="round" stroke-linejoin="round"/>
</svg>
